<svg width="20" height="20" viewBox="0 0 20 20" fill="none" xmlns="http://www.w3.org/2000/svg">
<g clip-path="url(#clip0_1_16099)">
<path d="M0.435077 14.895C0.843411 16.3434 2.09258 16.6084 2.17591 16.6592C4.23174 17.2192 15.7551 17.2209 17.8417 16.6592C19.2709 16.2459 19.5334 14.9784 19.5826 14.895C20.1267 12 20.1626 8.22587 19.5576 4.94087L19.5826 5.10421C19.1742 3.65587 17.9251 3.39087 17.8417 3.34004C15.8134 2.78921 4.26008 2.76837 2.17591 3.34004C0.746744 3.75421 0.484244 5.02087 0.435077 5.10421C-0.147423 8.14671 -0.17659 11.6375 0.435077 14.895ZM8.00674 13.0425V6.96504L13.2284 10.0084L8.00674 13.0425Z" fill="#E53935"/>
</g>
<defs>
<clipPath id="clip0_1_16099">
<rect width="20" height="20" fill="white"/>
</clipPath>
</defs>
</svg>
