<svg width="20" height="20" viewBox="0 0 20 20" fill="none" xmlns="http://www.w3.org/2000/svg">
<path d="M17.9935 5.51493C17.7329 4.90538 17.357 4.353 16.887 3.88873C16.4167 3.42307 15.8621 3.05302 15.2535 2.7987C14.6224 2.53394 13.9455 2.39842 13.2621 2.40001C12.3034 2.40001 11.368 2.66515 10.5552 3.16597C10.3607 3.28578 10.176 3.41737 10.0009 3.56074C9.82592 3.41737 9.64117 3.28578 9.44671 3.16597C8.63384 2.66515 7.69845 2.40001 6.73973 2.40001C6.04937 2.40001 5.38041 2.53356 4.74839 2.7987C4.13777 3.05402 3.58743 3.42129 3.11487 3.88873C2.64426 4.35248 2.26831 4.90498 2.00836 5.51493C1.73805 6.14931 1.59998 6.82296 1.59998 7.51626C1.59998 8.17028 1.73221 8.85179 1.99474 9.54509C2.21449 10.1245 2.52953 10.7255 2.93207 11.3323C3.56992 12.2927 4.44697 13.2944 5.53598 14.3098C7.34063 15.9929 9.12778 17.1556 9.20362 17.2028L9.66451 17.5013C9.8687 17.6329 10.1312 17.6329 10.3354 17.5013L10.7963 17.2028C10.8721 17.1537 12.6574 15.9929 14.4639 14.3098C15.553 13.2944 16.43 12.2927 17.0679 11.3323C17.4704 10.7255 17.7874 10.1245 18.0052 9.54509C18.2677 8.85179 18.4 8.17028 18.4 7.51626C18.4019 6.82296 18.2638 6.14931 17.9935 5.51493ZM10.0009 15.9478C10.0009 15.9478 3.07792 11.4679 3.07792 7.51626C3.07792 5.51493 4.71728 3.89266 6.73973 3.89266C8.16128 3.89266 9.3942 4.69397 10.0009 5.86453C10.6077 4.69397 11.8406 3.89266 13.2621 3.89266C15.2846 3.89266 16.924 5.51493 16.924 7.51626C16.924 11.4679 10.0009 15.9478 10.0009 15.9478Z" fill="#6F73EE"/>
</svg>
