<svg width="123" height="45" viewBox="0 0 123 45" fill="none" xmlns="http://www.w3.org/2000/svg">
<rect width="123" height="45" rx="5" fill="white"/>
<g clip-path="url(#clip0_1_16103)">
<path d="M19.8474 25.6509L19.5165 30.3042C19.9899 30.3042 20.1949 30.1009 20.4407 29.8567L22.6599 27.7359L27.2582 31.1034C28.1015 31.5734 28.6957 31.3259 28.9232 30.3276L31.9415 16.1842L31.9424 16.1834C32.2099 14.9367 31.4915 14.4492 30.6699 14.7551L12.9282 21.5476C11.7174 22.0176 11.7357 22.6926 12.7224 22.9984L17.2582 24.4092L27.794 17.8167C28.2899 17.4884 28.7407 17.6701 28.3699 17.9984L19.8474 25.6509Z" fill="#039BE5"/>
</g>
<path d="M45.112 11.726H47.702V20H49.354V11.726H51.944V10.2H45.112V11.726ZM54.4262 20.14C55.1728 20.14 55.8122 19.9953 56.3442 19.706C56.8762 19.4073 57.3148 18.9687 57.6602 18.39L56.3442 17.872C56.1482 18.2173 55.8962 18.474 55.5882 18.642C55.2802 18.81 54.9162 18.894 54.4962 18.894C54.1042 18.894 53.7728 18.81 53.5022 18.642C53.2315 18.474 53.0215 18.2267 52.8722 17.9C52.7322 17.5733 52.6668 17.1813 52.6762 16.724C52.6762 16.2573 52.7462 15.8653 52.8862 15.548C53.0355 15.2307 53.2408 14.988 53.5022 14.82C53.7728 14.652 54.0995 14.568 54.4822 14.568C54.7995 14.568 55.0748 14.638 55.3082 14.778C55.5508 14.918 55.7375 15.114 55.8682 15.366C56.0082 15.618 56.0782 15.9167 56.0782 16.262C56.0782 16.3273 56.0595 16.4067 56.0222 16.5C55.9942 16.5933 55.9662 16.668 55.9382 16.724L56.4002 16.08H52.0462V17.13H57.7022C57.7022 17.0927 57.7022 17.032 57.7022 16.948C57.7115 16.864 57.7162 16.7847 57.7162 16.71C57.7162 16.0193 57.5902 15.4313 57.3382 14.946C57.0862 14.4513 56.7175 14.0733 56.2322 13.812C55.7562 13.5507 55.1775 13.42 54.4962 13.42C53.8148 13.42 53.2222 13.56 52.7182 13.84C52.2142 14.1107 51.8222 14.498 51.5422 15.002C51.2715 15.506 51.1362 16.0987 51.1362 16.78C51.1362 17.452 51.2715 18.04 51.5422 18.544C51.8128 19.048 52.1955 19.44 52.6902 19.72C53.1942 20 53.7728 20.14 54.4262 20.14ZM59.173 9.08V20H60.699V9.08H59.173ZM65.4183 20.14C66.165 20.14 66.8043 19.9953 67.3363 19.706C67.8683 19.4073 68.307 18.9687 68.6523 18.39L67.3363 17.872C67.1403 18.2173 66.8883 18.474 66.5803 18.642C66.2723 18.81 65.9083 18.894 65.4883 18.894C65.0963 18.894 64.765 18.81 64.4943 18.642C64.2237 18.474 64.0137 18.2267 63.8643 17.9C63.7243 17.5733 63.659 17.1813 63.6683 16.724C63.6683 16.2573 63.7383 15.8653 63.8783 15.548C64.0277 15.2307 64.233 14.988 64.4943 14.82C64.765 14.652 65.0917 14.568 65.4743 14.568C65.7917 14.568 66.067 14.638 66.3003 14.778C66.543 14.918 66.7297 15.114 66.8603 15.366C67.0003 15.618 67.0703 15.9167 67.0703 16.262C67.0703 16.3273 67.0517 16.4067 67.0143 16.5C66.9863 16.5933 66.9583 16.668 66.9303 16.724L67.3923 16.08H63.0383V17.13H68.6943C68.6943 17.0927 68.6943 17.032 68.6943 16.948C68.7037 16.864 68.7083 16.7847 68.7083 16.71C68.7083 16.0193 68.5823 15.4313 68.3303 14.946C68.0783 14.4513 67.7097 14.0733 67.2243 13.812C66.7483 13.5507 66.1697 13.42 65.4883 13.42C64.807 13.42 64.2143 13.56 63.7103 13.84C63.2063 14.1107 62.8143 14.498 62.5343 15.002C62.2637 15.506 62.1283 16.0987 62.1283 16.78C62.1283 17.452 62.2637 18.04 62.5343 18.544C62.805 19.048 63.1877 19.44 63.6823 19.72C64.1863 20 64.765 20.14 65.4183 20.14ZM69.8012 20.434C69.8199 20.994 69.9646 21.4887 70.2352 21.918C70.5059 22.3473 70.8886 22.6787 71.3832 22.912C71.8779 23.1547 72.4706 23.276 73.1612 23.276C73.7492 23.276 74.2952 23.15 74.7992 22.898C75.3032 22.6553 75.7092 22.282 76.0172 21.778C76.3346 21.274 76.4932 20.6347 76.4932 19.86V13.56H75.0092V19.86C75.0092 20.3453 74.9159 20.742 74.7292 21.05C74.5519 21.358 74.3186 21.5867 74.0292 21.736C73.7399 21.8853 73.4412 21.96 73.1332 21.96C72.7692 21.96 72.4519 21.89 72.1812 21.75C71.9106 21.6193 71.7006 21.4373 71.5512 21.204C71.4019 20.98 71.3226 20.7233 71.3132 20.434H69.8012ZM69.6752 16.738C69.6752 17.4473 69.8199 18.0493 70.1092 18.544C70.3986 19.0387 70.7812 19.4167 71.2572 19.678C71.7426 19.9393 72.2606 20.07 72.8112 20.07C73.3526 20.07 73.8239 19.9393 74.2252 19.678C74.6359 19.4073 74.9579 19.0247 75.1912 18.53C75.4339 18.026 75.5552 17.4287 75.5552 16.738C75.5552 16.038 75.4339 15.4453 75.1912 14.96C74.9579 14.4653 74.6359 14.0873 74.2252 13.826C73.8239 13.5553 73.3526 13.42 72.8112 13.42C72.2606 13.42 71.7426 13.5507 71.2572 13.812C70.7812 14.0733 70.3986 14.4513 70.1092 14.946C69.8199 15.4313 69.6752 16.0287 69.6752 16.738ZM71.2432 16.738C71.2432 16.3087 71.3319 15.9447 71.5092 15.646C71.6866 15.3473 71.9199 15.1233 72.2092 14.974C72.5079 14.8153 72.8299 14.736 73.1752 14.736C73.3992 14.736 73.6186 14.778 73.8332 14.862C74.0479 14.946 74.2439 15.0767 74.4212 15.254C74.5986 15.422 74.7386 15.632 74.8412 15.884C74.9532 16.1267 75.0092 16.4113 75.0092 16.738C75.0092 17.1767 74.9159 17.5453 74.7292 17.844C74.5519 18.1427 74.3232 18.3713 74.0432 18.53C73.7632 18.6793 73.4739 18.754 73.1752 18.754C72.8299 18.754 72.5079 18.6793 72.2092 18.53C71.9199 18.3713 71.6866 18.1427 71.5092 17.844C71.3319 17.536 71.2432 17.1673 71.2432 16.738ZM79.8663 13.56H78.3683V20H79.8663V13.56ZM81.7843 15.17L82.5263 13.896C82.377 13.7187 82.1997 13.5927 81.9943 13.518C81.789 13.4433 81.5697 13.406 81.3363 13.406C81.0097 13.406 80.6923 13.5273 80.3843 13.77C80.0857 14.0033 79.8383 14.3207 79.6423 14.722C79.4557 15.114 79.3623 15.5667 79.3623 16.08L79.8663 16.374C79.8663 16.066 79.899 15.8 79.9643 15.576C80.039 15.3427 80.1557 15.1607 80.3143 15.03C80.473 14.8993 80.6783 14.834 80.9303 14.834C81.117 14.834 81.271 14.862 81.3923 14.918C81.523 14.974 81.6537 15.058 81.7843 15.17ZM84.5157 17.998C84.5157 17.7927 84.5623 17.62 84.6557 17.48C84.7583 17.34 84.9077 17.2327 85.1037 17.158C85.2997 17.074 85.5563 17.032 85.8737 17.032C86.2377 17.032 86.583 17.0787 86.9097 17.172C87.2363 17.2653 87.5443 17.4147 87.8337 17.62V16.85C87.7497 16.7473 87.605 16.6353 87.3997 16.514C87.1943 16.3833 86.933 16.2713 86.6157 16.178C86.3077 16.0847 85.939 16.038 85.5097 16.038C84.707 16.038 84.0863 16.2247 83.6477 16.598C83.209 16.962 82.9897 17.4567 82.9897 18.082C82.9897 18.5207 83.0923 18.894 83.2977 19.202C83.503 19.51 83.7783 19.7433 84.1237 19.902C84.469 20.0607 84.8423 20.14 85.2437 20.14C85.617 20.14 85.981 20.0747 86.3357 19.944C86.6997 19.804 86.9983 19.594 87.2317 19.314C87.4743 19.034 87.5957 18.6887 87.5957 18.278L87.3717 17.438C87.3717 17.7647 87.297 18.0447 87.1477 18.278C86.9983 18.5113 86.7977 18.6933 86.5457 18.824C86.303 18.9453 86.0277 19.006 85.7197 19.006C85.4863 19.006 85.2763 18.9687 85.0897 18.894C84.9123 18.8193 84.7723 18.7073 84.6697 18.558C84.567 18.3993 84.5157 18.2127 84.5157 17.998ZM84.0397 15.24C84.1423 15.1747 84.287 15.0953 84.4737 15.002C84.6603 14.8993 84.8843 14.8153 85.1457 14.75C85.4163 14.6753 85.701 14.638 85.9997 14.638C86.1957 14.638 86.3777 14.6567 86.5457 14.694C86.7137 14.7313 86.8583 14.792 86.9797 14.876C87.1103 14.96 87.2083 15.0673 87.2737 15.198C87.339 15.3287 87.3717 15.4967 87.3717 15.702V20H88.8557V15.408C88.8557 14.9787 88.739 14.6147 88.5057 14.316C88.2817 14.0173 87.9643 13.7933 87.5537 13.644C87.143 13.4853 86.6763 13.406 86.1537 13.406C85.547 13.406 85.015 13.49 84.5577 13.658C84.1003 13.826 83.7223 13.9987 83.4237 14.176L84.0397 15.24ZM99.8443 15.898C99.8443 15.3753 99.765 14.9273 99.6063 14.554C99.457 14.1807 99.233 13.9007 98.9343 13.714C98.6357 13.518 98.253 13.42 97.7863 13.42C97.357 13.42 96.9697 13.518 96.6243 13.714C96.2883 13.9007 96.0037 14.1853 95.7703 14.568C95.6303 14.1947 95.4017 13.91 95.0843 13.714C94.7763 13.518 94.389 13.42 93.9223 13.42C93.5023 13.42 93.143 13.5133 92.8443 13.7C92.5457 13.8773 92.2983 14.1433 92.1023 14.498V13.56H90.6183V20H92.1023V16.08C92.1023 15.772 92.1537 15.5107 92.2563 15.296C92.3683 15.0813 92.5177 14.918 92.7043 14.806C92.9003 14.694 93.1243 14.638 93.3763 14.638C93.7497 14.638 94.0203 14.7593 94.1883 15.002C94.3657 15.2353 94.4543 15.5947 94.4543 16.08V20H95.9663V16.08C95.9663 15.772 96.0177 15.5107 96.1203 15.296C96.2323 15.0813 96.3817 14.918 96.5683 14.806C96.7643 14.694 96.993 14.638 97.2543 14.638C97.6183 14.638 97.8843 14.7593 98.0523 15.002C98.2297 15.2353 98.3183 15.5947 98.3183 16.08V20H99.8443V15.898Z" fill="#282739"/>
<path d="M45.2 32.6H50.53V31.85H49.1H48.93H46.6L48.58 28.89V32.13V32.24V34H49.43V27H49.08L45.2 32.6ZM53.3601 30.55C53.8134 30.55 54.2101 30.47 54.5501 30.31C54.8901 30.15 55.1567 29.9333 55.3501 29.66C55.5434 29.3867 55.6401 29.0867 55.6401 28.76C55.6401 28.4267 55.5601 28.12 55.4001 27.84C55.2467 27.56 55.0234 27.3333 54.7301 27.16C54.4434 26.9867 54.1001 26.9 53.7001 26.9C53.3201 26.9 52.9801 26.98 52.6801 27.14C52.3867 27.2933 52.1534 27.5067 51.9801 27.78C51.8134 28.0533 51.7301 28.3733 51.7301 28.74H52.5401C52.5401 28.4333 52.6534 28.18 52.8801 27.98C53.1067 27.7733 53.3834 27.67 53.7101 27.67C53.9434 27.67 54.1367 27.7167 54.2901 27.81C54.4501 27.9033 54.5701 28.0367 54.6501 28.21C54.7301 28.3767 54.7701 28.57 54.7701 28.79C54.7701 28.9567 54.7367 29.1133 54.6701 29.26C54.6101 29.4067 54.5201 29.5367 54.4001 29.65C54.2801 29.7567 54.1334 29.8433 53.9601 29.91C53.7867 29.97 53.5867 30 53.3601 30V30.55ZM53.6601 34.1C54.0801 34.1 54.4534 34.02 54.7801 33.86C55.1067 33.7 55.3634 33.4733 55.5501 33.18C55.7434 32.8867 55.8401 32.5433 55.8401 32.15C55.8401 31.8033 55.7734 31.5067 55.6401 31.26C55.5134 31.0133 55.3334 30.8133 55.1001 30.66C54.8734 30.5 54.6101 30.3833 54.3101 30.31C54.0167 30.2367 53.7001 30.2 53.3601 30.2V30.75C53.5867 30.75 53.7967 30.7767 53.9901 30.83C54.1834 30.8833 54.3534 30.9667 54.5001 31.08C54.6467 31.1867 54.7601 31.3233 54.8401 31.49C54.9267 31.65 54.9701 31.8367 54.9701 32.05C54.9701 32.3033 54.9167 32.5233 54.8101 32.71C54.7034 32.8967 54.5501 33.0433 54.3501 33.15C54.1567 33.25 53.9267 33.3 53.6601 33.3C53.3934 33.3 53.1567 33.25 52.9501 33.15C52.7434 33.05 52.5801 32.9133 52.4601 32.74C52.3467 32.5667 52.2901 32.37 52.2901 32.15H51.4301C51.4301 32.4233 51.4834 32.68 51.5901 32.92C51.6967 33.1533 51.8467 33.36 52.0401 33.54C52.2334 33.7133 52.4667 33.85 52.7401 33.95C53.0134 34.05 53.3201 34.1 53.6601 34.1ZM56.4891 34H61.4291V33.2H58.2391L60.4691 30.93C60.7424 30.65 60.9657 30.3333 61.1391 29.98C61.3124 29.6267 61.3991 29.27 61.3991 28.91C61.3991 28.6967 61.3557 28.4733 61.2691 28.24C61.1824 28.0067 61.0491 27.79 60.8691 27.59C60.6891 27.3833 60.4591 27.2167 60.1791 27.09C59.8991 26.9567 59.5657 26.89 59.1791 26.89C58.6991 26.89 58.2857 26.9967 57.9391 27.21C57.5991 27.4167 57.3391 27.71 57.1591 28.09C56.9791 28.4633 56.8891 28.9 56.8891 29.4H57.7391C57.7391 29.0467 57.7957 28.7433 57.9091 28.49C58.0224 28.23 58.1857 28.0333 58.3991 27.9C58.6191 27.76 58.8791 27.69 59.1791 27.69C59.3924 27.69 59.5824 27.7267 59.7491 27.8C59.9157 27.8733 60.0557 27.97 60.1691 28.09C60.2891 28.21 60.3791 28.3433 60.4391 28.49C60.4991 28.6367 60.5291 28.7867 60.5291 28.94C60.5291 29.1267 60.4991 29.3067 60.4391 29.48C60.3857 29.6467 60.3024 29.8133 60.1891 29.98C60.0824 30.14 59.9524 30.3033 59.7991 30.47L56.4891 34Z" fill="#5D6C7B"/>
<defs>
<clipPath id="clip0_1_16103">
<rect width="20" height="20" fill="white" transform="translate(12 13)"/>
</clipPath>
</defs>
</svg>
