<svg width="18" height="18" viewBox="0 0 18 18" fill="none" xmlns="http://www.w3.org/2000/svg">
<g clip-path="url(#clip0_3604_328)">
<path d="M14.4526 5.35819L15.5303 4.28044L14.4698 3.21956L13.3169 4.3725C12.2636 3.62609 11.0346 3.16607 9.75007 3.0375V1.5H11.2501V0H6.75007V1.5H8.25007V3.0375C6.96557 3.16607 5.7365 3.62609 4.68325 4.3725L3.53031 3.21956L2.46982 4.28044L3.54757 5.35819C2.54155 6.42334 1.86955 7.75982 1.61454 9.20259C1.35953 10.6454 1.53269 12.1312 2.11264 13.4767C2.69258 14.8222 3.6539 15.9683 4.8779 16.7736C6.10189 17.5788 7.53493 18.008 9.00007 18.008C10.4652 18.008 11.8982 17.5788 13.1222 16.7736C14.3462 15.9683 15.3076 14.8222 15.8875 13.4767C16.4674 12.1312 16.6406 10.6454 16.3856 9.20259C16.1306 7.75982 15.4586 6.42334 14.4526 5.35819ZM9.00007 16.5C7.81338 16.5 6.65334 16.1481 5.66664 15.4888C4.67995 14.8295 3.91091 13.8925 3.45679 12.7961C3.00266 11.6997 2.88384 10.4933 3.11535 9.32946C3.34686 8.16557 3.91831 7.09647 4.75742 6.25736C5.59654 5.41824 6.66564 4.8468 7.82952 4.61529C8.99341 4.38378 10.1998 4.5026 11.2962 4.95672C12.3925 5.41085 13.3296 6.17988 13.9889 7.16658C14.6482 8.15327 15.0001 9.31331 15.0001 10.5C14.9983 12.0908 14.3656 13.6158 13.2407 14.7407C12.1159 15.8655 10.5908 16.4982 9.00007 16.5Z" fill="#5D6C7B"/>
<path d="M9 6.00015V10.5002H4.5C4.5 11.3902 4.76392 12.2602 5.25839 13.0002C5.75285 13.7402 6.45566 14.317 7.27792 14.6576C8.10019 14.9982 9.00499 15.0873 9.87791 14.9137C10.7508 14.7401 11.5526 14.3115 12.182 13.6821C12.8113 13.0528 13.2399 12.251 13.4135 11.3781C13.5872 10.5051 13.4981 9.60034 13.1575 8.77808C12.8169 7.95581 12.2401 7.25301 11.5001 6.75854C10.76 6.26407 9.89002 6.00015 9 6.00015Z" fill="#5D6C7B"/>
</g>
<defs>
<clipPath id="clip0_3604_328">
<rect width="18" height="18" fill="white"/>
</clipPath>
</defs>
</svg>
