<svg width="123" height="45" viewBox="0 0 123 45" fill="none" xmlns="http://www.w3.org/2000/svg">
<rect width="123" height="45" rx="5" fill="white"/>
<g clip-path="url(#clip0_1_16083)">
<path d="M28.5958 23.8567C28.2725 23.4484 28.365 23.2667 28.5958 22.9017C28.6 22.8976 31.2692 19.2092 31.5442 17.9584L31.5458 17.9576C31.6825 17.5017 31.5458 17.1667 30.885 17.1667H28.6983C28.1417 17.1667 27.885 17.4542 27.7475 17.7759C27.7475 17.7759 26.6342 20.4409 25.0592 22.1684C24.5508 22.6676 24.3158 22.8276 24.0383 22.8276C23.9017 22.8276 23.6892 22.6676 23.6892 22.2117V17.9576C23.6892 17.4109 23.5333 17.1667 23.0725 17.1667H19.6342C19.285 17.1667 19.0775 17.4217 19.0775 17.6592C19.0775 18.1776 19.865 18.2967 19.9467 19.7551V22.9192C19.9467 23.6126 19.8208 23.7401 19.5417 23.7401C18.7983 23.7401 16.9942 21.0642 15.925 18.0017C15.7092 17.4076 15.4983 17.1676 14.9375 17.1676H12.75C12.1258 17.1676 12 17.4551 12 17.7767C12 18.3451 12.7433 21.1709 15.4567 24.9042C17.265 27.4526 19.8117 28.8334 22.1283 28.8334C23.5208 28.8334 23.6908 28.5267 23.6908 27.9992C23.6908 25.5642 23.565 25.3342 24.2625 25.3342C24.5858 25.3342 25.1425 25.4942 26.4425 26.7234C27.9283 28.1809 28.1725 28.8334 29.0042 28.8334H31.1908C31.8142 28.8334 32.13 28.5267 31.9483 27.9217C31.5325 26.6492 28.7225 24.0317 28.5958 23.8567Z" fill="#4B729F"/>
</g>
<path d="M47.352 14.946H49.046C49.6713 14.946 50.2173 14.8573 50.684 14.68C51.1507 14.5027 51.5147 14.246 51.776 13.91C52.0467 13.5647 52.182 13.1493 52.182 12.664C52.182 12.104 52.0467 11.642 51.776 11.278C51.5147 10.914 51.1507 10.6433 50.684 10.466C50.2173 10.2887 49.6713 10.2 49.046 10.2H46.092V20H49.214C49.914 20 50.5253 19.902 51.048 19.706C51.58 19.5007 51.9953 19.188 52.294 18.768C52.5927 18.348 52.742 17.816 52.742 17.172C52.742 16.7053 52.6487 16.304 52.462 15.968C52.2753 15.632 52.0187 15.3567 51.692 15.142C51.3653 14.9273 50.9873 14.7687 50.558 14.666C50.138 14.554 49.69 14.498 49.214 14.498H47.352V15.422H49.116C49.396 15.422 49.6527 15.4547 49.886 15.52C50.1193 15.576 50.3247 15.674 50.502 15.814C50.6793 15.9447 50.8147 16.108 50.908 16.304C51.0013 16.5 51.048 16.7333 51.048 17.004C51.048 17.368 50.964 17.6713 50.796 17.914C50.628 18.1473 50.3993 18.3247 50.11 18.446C49.8207 18.5673 49.4893 18.628 49.116 18.628H47.744V11.558H48.934C49.4007 11.558 49.774 11.67 50.054 11.894C50.3433 12.118 50.488 12.4353 50.488 12.846C50.488 13.1167 50.4227 13.35 50.292 13.546C50.1613 13.7327 49.9793 13.8773 49.746 13.98C49.5127 14.0827 49.242 14.134 48.934 14.134H47.352V14.946ZM54.3182 13.56V20H55.8022V13.56H54.3182ZM58.1682 13.56L55.3962 16.22L58.4622 20H60.3102L57.2442 16.22L60.0302 13.56H58.1682ZM60.6108 16.78C60.6108 17.4333 60.7601 18.0167 61.0588 18.53C61.3668 19.034 61.7821 19.4307 62.3048 19.72C62.8368 20 63.4294 20.14 64.0828 20.14C64.7454 20.14 65.3381 20 65.8608 19.72C66.3834 19.4307 66.7941 19.034 67.0928 18.53C67.4008 18.0167 67.5548 17.4333 67.5548 16.78C67.5548 16.1173 67.4008 15.534 67.0928 15.03C66.7941 14.526 66.3834 14.134 65.8608 13.854C65.3381 13.5647 64.7454 13.42 64.0828 13.42C63.4294 13.42 62.8368 13.5647 62.3048 13.854C61.7821 14.134 61.3668 14.526 61.0588 15.03C60.7601 15.534 60.6108 16.1173 60.6108 16.78ZM62.1648 16.78C62.1648 16.3787 62.2488 16.024 62.4168 15.716C62.5848 15.408 62.8134 15.17 63.1028 15.002C63.3921 14.834 63.7188 14.75 64.0828 14.75C64.4468 14.75 64.7734 14.834 65.0628 15.002C65.3521 15.17 65.5808 15.408 65.7488 15.716C65.9168 16.024 66.0008 16.3787 66.0008 16.78C66.0008 17.1813 65.9168 17.536 65.7488 17.844C65.5808 18.1427 65.3521 18.3807 65.0628 18.558C64.7734 18.726 64.4468 18.81 64.0828 18.81C63.7188 18.81 63.3921 18.726 63.1028 18.558C62.8134 18.3807 62.5848 18.1427 62.4168 17.844C62.2488 17.536 62.1648 17.1813 62.1648 16.78ZM69.6611 17.228H74.5891V15.968H69.6611V17.228ZM73.7771 13.56V20H75.2611V13.56H73.7771ZM69.0031 13.56V20H70.4871V13.56H69.0031ZM76.2966 13.56V14.89H80.3706V13.56H76.2966ZM77.5986 13.84V20H79.0826V13.84H77.5986ZM82.3555 18.096C82.3555 17.872 82.4115 17.6807 82.5235 17.522C82.6355 17.354 82.7988 17.228 83.0135 17.144C83.2282 17.0507 83.4942 17.004 83.8115 17.004C84.2035 17.004 84.5488 17.0553 84.8475 17.158C85.1462 17.2513 85.4402 17.4053 85.7295 17.62V16.822C85.6548 16.7287 85.5195 16.6213 85.3235 16.5C85.1275 16.3787 84.8802 16.2713 84.5815 16.178C84.2922 16.0847 83.9608 16.038 83.5875 16.038C83.0275 16.038 82.5375 16.122 82.1175 16.29C81.7068 16.458 81.3895 16.7007 81.1655 17.018C80.9415 17.3353 80.8295 17.7133 80.8295 18.152C80.8295 18.5907 80.9275 18.9593 81.1235 19.258C81.3288 19.5473 81.5995 19.7667 81.9355 19.916C82.2808 20.0653 82.6635 20.14 83.0835 20.14C83.5315 20.14 83.9375 20.0653 84.3015 19.916C84.6655 19.7573 84.9548 19.5333 85.1695 19.244C85.3842 18.9453 85.4915 18.5907 85.4915 18.18L85.2675 17.438C85.2675 17.8207 85.1928 18.124 85.0435 18.348C84.8942 18.572 84.6888 18.7353 84.4275 18.838C84.1662 18.9407 83.8722 18.992 83.5455 18.992C83.3308 18.992 83.1302 18.9593 82.9435 18.894C82.7662 18.8193 82.6215 18.7167 82.5095 18.586C82.4068 18.4553 82.3555 18.292 82.3555 18.096ZM82.0335 15.254C82.1362 15.1887 82.2808 15.1093 82.4675 15.016C82.6635 14.9133 82.8875 14.8247 83.1395 14.75C83.4008 14.6753 83.6855 14.638 83.9935 14.638C84.3482 14.638 84.6468 14.722 84.8895 14.89C85.1415 15.0487 85.2675 15.2773 85.2675 15.576V20H86.7515V15.408C86.7515 14.9787 86.6348 14.6147 86.4015 14.316C86.1775 14.0173 85.8648 13.7933 85.4635 13.644C85.0622 13.4853 84.5955 13.406 84.0635 13.406C83.4848 13.406 82.9715 13.49 82.5235 13.658C82.0755 13.826 81.7068 13.9987 81.4175 14.176L82.0335 15.254ZM88.4705 13.56V20H89.9545V13.56H88.4705ZM92.3205 13.56L89.5485 16.22L92.6145 20H94.4625L91.3965 16.22L94.1825 13.56H92.3205ZM94.5622 13.56V14.89H98.6362V13.56H94.5622ZM95.8642 13.84V20H97.3482V13.84H95.8642ZM99.884 17.13H105.54C105.549 17.046 105.554 16.9713 105.554 16.906C105.554 16.8313 105.554 16.766 105.554 16.71C105.554 16.0287 105.423 15.4453 105.162 14.96C104.91 14.4653 104.541 14.0873 104.056 13.826C103.58 13.5553 103.006 13.42 102.334 13.42C101.727 13.42 101.191 13.532 100.724 13.756C100.257 13.98 99.8794 14.2927 99.59 14.694C99.31 15.0953 99.1234 15.562 99.03 16.094C99.0114 16.206 98.9974 16.318 98.988 16.43C98.9787 16.542 98.974 16.6587 98.974 16.78C98.974 17.424 99.1094 18.0027 99.38 18.516C99.6507 19.02 100.033 19.4167 100.528 19.706C101.032 19.9953 101.611 20.14 102.264 20.14C102.852 20.14 103.342 20.07 103.734 19.93C104.135 19.7807 104.476 19.5753 104.756 19.314C105.036 19.0527 105.283 18.7447 105.498 18.39L104.182 17.872C104.061 18.0773 103.911 18.2593 103.734 18.418C103.557 18.5673 103.351 18.684 103.118 18.768C102.894 18.852 102.633 18.894 102.334 18.894C101.979 18.894 101.662 18.8193 101.382 18.67C101.111 18.5113 100.897 18.2733 100.738 17.956C100.589 17.6387 100.514 17.2467 100.514 16.78L100.542 16.388C100.542 16.0147 100.617 15.6927 100.766 15.422C100.925 15.142 101.139 14.932 101.41 14.792C101.681 14.6427 101.984 14.568 102.32 14.568C102.647 14.568 102.922 14.6333 103.146 14.764C103.37 14.8853 103.543 15.0627 103.664 15.296C103.795 15.52 103.879 15.7813 103.916 16.08H99.884V17.13Z" fill="#282739"/>
<path d="M47.53 30.55C47.9833 30.55 48.38 30.47 48.72 30.31C49.06 30.15 49.3267 29.9333 49.52 29.66C49.7133 29.3867 49.81 29.0867 49.81 28.76C49.81 28.4267 49.73 28.12 49.57 27.84C49.4167 27.56 49.1933 27.3333 48.9 27.16C48.6133 26.9867 48.27 26.9 47.87 26.9C47.49 26.9 47.15 26.98 46.85 27.14C46.5567 27.2933 46.3233 27.5067 46.15 27.78C45.9833 28.0533 45.9 28.3733 45.9 28.74H46.71C46.71 28.4333 46.8233 28.18 47.05 27.98C47.2767 27.7733 47.5533 27.67 47.88 27.67C48.1133 27.67 48.3067 27.7167 48.46 27.81C48.62 27.9033 48.74 28.0367 48.82 28.21C48.9 28.3767 48.94 28.57 48.94 28.79C48.94 28.9567 48.9067 29.1133 48.84 29.26C48.78 29.4067 48.69 29.5367 48.57 29.65C48.45 29.7567 48.3033 29.8433 48.13 29.91C47.9567 29.97 47.7567 30 47.53 30V30.55ZM47.83 34.1C48.25 34.1 48.6233 34.02 48.95 33.86C49.2767 33.7 49.5333 33.4733 49.72 33.18C49.9133 32.8867 50.01 32.5433 50.01 32.15C50.01 31.8033 49.9433 31.5067 49.81 31.26C49.6833 31.0133 49.5033 30.8133 49.27 30.66C49.0433 30.5 48.78 30.3833 48.48 30.31C48.1867 30.2367 47.87 30.2 47.53 30.2V30.75C47.7567 30.75 47.9667 30.7767 48.16 30.83C48.3533 30.8833 48.5233 30.9667 48.67 31.08C48.8167 31.1867 48.93 31.3233 49.01 31.49C49.0967 31.65 49.14 31.8367 49.14 32.05C49.14 32.3033 49.0867 32.5233 48.98 32.71C48.8733 32.8967 48.72 33.0433 48.52 33.15C48.3267 33.25 48.0967 33.3 47.83 33.3C47.5633 33.3 47.3267 33.25 47.12 33.15C46.9133 33.05 46.75 32.9133 46.63 32.74C46.5167 32.5667 46.46 32.37 46.46 32.15H45.6C45.6 32.4233 45.6533 32.68 45.76 32.92C45.8667 33.1533 46.0167 33.36 46.21 33.54C46.4033 33.7133 46.6367 33.85 46.91 33.95C47.1833 34.05 47.49 34.1 47.83 34.1ZM55.987 30.55C56.4404 30.55 56.837 30.47 57.177 30.31C57.517 30.15 57.7837 29.9333 57.977 29.66C58.1704 29.3867 58.267 29.0867 58.267 28.76C58.267 28.4267 58.187 28.12 58.027 27.84C57.8737 27.56 57.6504 27.3333 57.357 27.16C57.0704 26.9867 56.727 26.9 56.327 26.9C55.947 26.9 55.607 26.98 55.307 27.14C55.0137 27.2933 54.7804 27.5067 54.607 27.78C54.4404 28.0533 54.357 28.3733 54.357 28.74H55.167C55.167 28.4333 55.2804 28.18 55.507 27.98C55.7337 27.7733 56.0104 27.67 56.337 27.67C56.5704 27.67 56.7637 27.7167 56.917 27.81C57.077 27.9033 57.197 28.0367 57.277 28.21C57.357 28.3767 57.397 28.57 57.397 28.79C57.397 28.9567 57.3637 29.1133 57.297 29.26C57.237 29.4067 57.147 29.5367 57.027 29.65C56.907 29.7567 56.7604 29.8433 56.587 29.91C56.4137 29.97 56.2137 30 55.987 30V30.55ZM56.287 34.1C56.707 34.1 57.0804 34.02 57.407 33.86C57.7337 33.7 57.9904 33.4733 58.177 33.18C58.3704 32.8867 58.467 32.5433 58.467 32.15C58.467 31.8033 58.4004 31.5067 58.267 31.26C58.1404 31.0133 57.9604 30.8133 57.727 30.66C57.5004 30.5 57.237 30.3833 56.937 30.31C56.6437 30.2367 56.327 30.2 55.987 30.2V30.75C56.2137 30.75 56.4237 30.7767 56.617 30.83C56.8104 30.8833 56.9804 30.9667 57.127 31.08C57.2737 31.1867 57.387 31.3233 57.467 31.49C57.5537 31.65 57.597 31.8367 57.597 32.05C57.597 32.3033 57.5437 32.5233 57.437 32.71C57.3304 32.8967 57.177 33.0433 56.977 33.15C56.7837 33.25 56.5537 33.3 56.287 33.3C56.0204 33.3 55.7837 33.25 55.577 33.15C55.3704 33.05 55.207 32.9133 55.087 32.74C54.9737 32.5667 54.917 32.37 54.917 32.15H54.057C54.057 32.4233 54.1104 32.68 54.217 32.92C54.3237 33.1533 54.4737 33.36 54.667 33.54C54.8604 33.7133 55.0937 33.85 55.367 33.95C55.6404 34.05 55.947 34.1 56.287 34.1ZM60.166 30.5C60.166 30.0933 60.206 29.72 60.286 29.38C60.366 29.0333 60.4827 28.7367 60.636 28.49C60.7893 28.2367 60.9727 28.0433 61.186 27.91C61.406 27.77 61.6493 27.7 61.916 27.7C62.1893 27.7 62.4327 27.77 62.646 27.91C62.8593 28.0433 63.0427 28.2367 63.196 28.49C63.3493 28.7367 63.466 29.0333 63.546 29.38C63.626 29.72 63.666 30.0933 63.666 30.5C63.666 30.9067 63.626 31.2833 63.546 31.63C63.466 31.97 63.3493 32.2667 63.196 32.52C63.0427 32.7667 62.8593 32.96 62.646 33.1C62.4327 33.2333 62.1893 33.3 61.916 33.3C61.6493 33.3 61.406 33.2333 61.186 33.1C60.9727 32.96 60.7893 32.7667 60.636 32.52C60.4827 32.2667 60.366 31.97 60.286 31.63C60.206 31.2833 60.166 30.9067 60.166 30.5ZM59.316 30.5C59.316 31.2 59.426 31.82 59.646 32.36C59.866 32.9 60.1693 33.3267 60.556 33.64C60.9493 33.9467 61.4027 34.1 61.916 34.1C62.4293 34.1 62.8793 33.9467 63.266 33.64C63.6593 33.3267 63.966 32.9 64.186 32.36C64.406 31.82 64.516 31.2 64.516 30.5C64.516 29.8 64.406 29.18 64.186 28.64C63.966 28.1 63.6593 27.6767 63.266 27.37C62.8793 27.0567 62.4293 26.9 61.916 26.9C61.4027 26.9 60.9493 27.0567 60.556 27.37C60.1693 27.6767 59.866 28.1 59.646 28.64C59.426 29.18 59.316 29.8 59.316 30.5ZM66.1621 30.5C66.1621 30.0933 66.2021 29.72 66.2821 29.38C66.3621 29.0333 66.4788 28.7367 66.6321 28.49C66.7854 28.2367 66.9688 28.0433 67.1821 27.91C67.4021 27.77 67.6454 27.7 67.9121 27.7C68.1854 27.7 68.4288 27.77 68.6421 27.91C68.8554 28.0433 69.0388 28.2367 69.1921 28.49C69.3454 28.7367 69.4621 29.0333 69.5421 29.38C69.6221 29.72 69.6621 30.0933 69.6621 30.5C69.6621 30.9067 69.6221 31.2833 69.5421 31.63C69.4621 31.97 69.3454 32.2667 69.1921 32.52C69.0388 32.7667 68.8554 32.96 68.6421 33.1C68.4288 33.2333 68.1854 33.3 67.9121 33.3C67.6454 33.3 67.4021 33.2333 67.1821 33.1C66.9688 32.96 66.7854 32.7667 66.6321 32.52C66.4788 32.2667 66.3621 31.97 66.2821 31.63C66.2021 31.2833 66.1621 30.9067 66.1621 30.5ZM65.3121 30.5C65.3121 31.2 65.4221 31.82 65.6421 32.36C65.8621 32.9 66.1654 33.3267 66.5521 33.64C66.9454 33.9467 67.3988 34.1 67.9121 34.1C68.4254 34.1 68.8754 33.9467 69.2621 33.64C69.6554 33.3267 69.9621 32.9 70.1821 32.36C70.4021 31.82 70.5121 31.2 70.5121 30.5C70.5121 29.8 70.4021 29.18 70.1821 28.64C69.9621 28.1 69.6554 27.6767 69.2621 27.37C68.8754 27.0567 68.4254 26.9 67.9121 26.9C67.3988 26.9 66.9454 27.0567 66.5521 27.37C66.1654 27.6767 65.8621 28.1 65.6421 28.64C65.4221 29.18 65.3121 29.8 65.3121 30.5Z" fill="#5D6C7B"/>
<defs>
<clipPath id="clip0_1_16083">
<rect width="20" height="20" fill="white" transform="translate(12 13)"/>
</clipPath>
</defs>
</svg>
