<svg width="123" height="45" viewBox="0 0 123 45" fill="none" xmlns="http://www.w3.org/2000/svg">
<rect width="123" height="45" rx="5" fill="white"/>
<g clip-path="url(#clip0_1_16097)">
<path d="M14.4351 27.895C14.8434 29.3434 16.0926 29.6084 16.1759 29.6592C18.2317 30.2192 29.7551 30.2209 31.8417 29.6592C33.2709 29.2459 33.5334 27.9784 33.5826 27.895C34.1267 25 34.1626 21.2259 33.5576 17.9409L33.5826 18.1042C33.1742 16.6559 31.9251 16.3909 31.8417 16.34C29.8134 15.7892 18.2601 15.7684 16.1759 16.34C14.7467 16.7542 14.4842 18.0209 14.4351 18.1042C13.8526 21.1467 13.8234 24.6375 14.4351 27.895ZM22.0067 26.0425V19.965L27.2284 23.0084L22.0067 26.0425Z" fill="#E53935"/>
</g>
<path d="M51.482 10.2L49.2 14.386L46.932 10.2H45.042L48.374 15.884V20H50.054V15.87L53.372 10.2H51.482ZM52.4897 16.78C52.4897 17.4333 52.639 18.0167 52.9377 18.53C53.2457 19.034 53.661 19.4307 54.1837 19.72C54.7157 20 55.3083 20.14 55.9617 20.14C56.6243 20.14 57.217 20 57.7397 19.72C58.2623 19.4307 58.673 19.034 58.9717 18.53C59.2797 18.0167 59.4337 17.4333 59.4337 16.78C59.4337 16.1173 59.2797 15.534 58.9717 15.03C58.673 14.526 58.2623 14.134 57.7397 13.854C57.217 13.5647 56.6243 13.42 55.9617 13.42C55.3083 13.42 54.7157 13.5647 54.1837 13.854C53.661 14.134 53.2457 14.526 52.9377 15.03C52.639 15.534 52.4897 16.1173 52.4897 16.78ZM54.0437 16.78C54.0437 16.3787 54.1277 16.024 54.2957 15.716C54.4637 15.408 54.6923 15.17 54.9817 15.002C55.271 14.834 55.5977 14.75 55.9617 14.75C56.3257 14.75 56.6523 14.834 56.9417 15.002C57.231 15.17 57.4597 15.408 57.6277 15.716C57.7957 16.024 57.8797 16.3787 57.8797 16.78C57.8797 17.1813 57.7957 17.536 57.6277 17.844C57.4597 18.1427 57.231 18.3807 56.9417 18.558C56.6523 18.726 56.3257 18.81 55.9617 18.81C55.5977 18.81 55.271 18.726 54.9817 18.558C54.6923 18.3807 54.4637 18.1427 54.2957 17.844C54.1277 17.536 54.0437 17.1813 54.0437 16.78ZM62.436 17.48V13.56H60.882V17.648C60.882 18.4133 61.0733 19.02 61.456 19.468C61.848 19.916 62.4033 20.14 63.122 20.14C63.57 20.14 63.9527 20.0467 64.27 19.86C64.5967 19.664 64.8627 19.3793 65.068 19.006V20H66.58V13.56H65.068V17.48C65.068 17.7693 65.0073 18.0213 64.886 18.236C64.7647 18.4507 64.5967 18.6187 64.382 18.74C64.1673 18.8613 63.92 18.922 63.64 18.922C63.2293 18.922 62.926 18.796 62.73 18.544C62.534 18.292 62.436 17.9373 62.436 17.48ZM66.5358 11.726H69.1258V20H70.7778V11.726H73.3678V10.2H66.5358V11.726ZM74.8774 17.48V13.56H73.3234V17.648C73.3234 18.4133 73.5148 19.02 73.8974 19.468C74.2894 19.916 74.8448 20.14 75.5634 20.14C76.0114 20.14 76.3941 20.0467 76.7114 19.86C77.0381 19.664 77.3041 19.3793 77.5094 19.006V20H79.0214V13.56H77.5094V17.48C77.5094 17.7693 77.4488 18.0213 77.3274 18.236C77.2061 18.4507 77.0381 18.6187 76.8234 18.74C76.6088 18.8613 76.3614 18.922 76.0814 18.922C75.6708 18.922 75.3674 18.796 75.1714 18.544C74.9754 18.292 74.8774 17.9373 74.8774 17.48ZM82.4223 9.08H80.8963V20H82.4223V9.08ZM87.7563 16.78C87.7563 16.0707 87.6117 15.4687 87.3223 14.974C87.033 14.47 86.6503 14.0873 86.1743 13.826C85.6983 13.5553 85.1803 13.42 84.6203 13.42C84.0883 13.42 83.617 13.5553 83.2063 13.826C82.7957 14.0967 82.469 14.484 82.2263 14.988C81.993 15.4827 81.8763 16.08 81.8763 16.78C81.8763 17.4707 81.993 18.068 82.2263 18.572C82.469 19.076 82.7957 19.4633 83.2063 19.734C83.617 20.0047 84.0883 20.14 84.6203 20.14C85.1803 20.14 85.6983 20.0093 86.1743 19.748C86.6503 19.4773 87.033 19.09 87.3223 18.586C87.6117 18.082 87.7563 17.48 87.7563 16.78ZM86.1883 16.78C86.1883 17.2093 86.0997 17.578 85.9223 17.886C85.745 18.194 85.5117 18.4273 85.2223 18.586C84.933 18.7447 84.611 18.824 84.2563 18.824C83.9577 18.824 83.6683 18.7447 83.3883 18.586C83.1083 18.4273 82.875 18.1987 82.6883 17.9C82.511 17.592 82.4223 17.2187 82.4223 16.78C82.4223 16.3413 82.511 15.9727 82.6883 15.674C82.875 15.366 83.1083 15.1327 83.3883 14.974C83.6683 14.8153 83.9577 14.736 84.2563 14.736C84.611 14.736 84.933 14.8153 85.2223 14.974C85.5117 15.1327 85.745 15.366 85.9223 15.674C86.0997 15.982 86.1883 16.3507 86.1883 16.78ZM91.9965 20.14C92.7431 20.14 93.3825 19.9953 93.9145 19.706C94.4465 19.4073 94.8851 18.9687 95.2305 18.39L93.9145 17.872C93.7185 18.2173 93.4665 18.474 93.1585 18.642C92.8505 18.81 92.4865 18.894 92.0665 18.894C91.6745 18.894 91.3431 18.81 91.0725 18.642C90.8018 18.474 90.5918 18.2267 90.4425 17.9C90.3025 17.5733 90.2371 17.1813 90.2465 16.724C90.2465 16.2573 90.3165 15.8653 90.4565 15.548C90.6058 15.2307 90.8111 14.988 91.0725 14.82C91.3431 14.652 91.6698 14.568 92.0525 14.568C92.3698 14.568 92.6451 14.638 92.8785 14.778C93.1211 14.918 93.3078 15.114 93.4385 15.366C93.5785 15.618 93.6485 15.9167 93.6485 16.262C93.6485 16.3273 93.6298 16.4067 93.5925 16.5C93.5645 16.5933 93.5365 16.668 93.5085 16.724L93.9705 16.08H89.6165V17.13H95.2725C95.2725 17.0927 95.2725 17.032 95.2725 16.948C95.2818 16.864 95.2865 16.7847 95.2865 16.71C95.2865 16.0193 95.1605 15.4313 94.9085 14.946C94.6565 14.4513 94.2878 14.0733 93.8025 13.812C93.3265 13.5507 92.7478 13.42 92.0665 13.42C91.3851 13.42 90.7925 13.56 90.2885 13.84C89.7845 14.1107 89.3925 14.498 89.1125 15.002C88.8418 15.506 88.7065 16.0987 88.7065 16.78C88.7065 17.452 88.8418 18.04 89.1125 18.544C89.3831 19.048 89.7658 19.44 90.2605 19.72C90.7645 20 91.3431 20.14 91.9965 20.14Z" fill="#282739"/>
<path d="M47.53 30.55C47.9833 30.55 48.38 30.47 48.72 30.31C49.06 30.15 49.3267 29.9333 49.52 29.66C49.7133 29.3867 49.81 29.0867 49.81 28.76C49.81 28.4267 49.73 28.12 49.57 27.84C49.4167 27.56 49.1933 27.3333 48.9 27.16C48.6133 26.9867 48.27 26.9 47.87 26.9C47.49 26.9 47.15 26.98 46.85 27.14C46.5567 27.2933 46.3233 27.5067 46.15 27.78C45.9833 28.0533 45.9 28.3733 45.9 28.74H46.71C46.71 28.4333 46.8233 28.18 47.05 27.98C47.2767 27.7733 47.5533 27.67 47.88 27.67C48.1133 27.67 48.3067 27.7167 48.46 27.81C48.62 27.9033 48.74 28.0367 48.82 28.21C48.9 28.3767 48.94 28.57 48.94 28.79C48.94 28.9567 48.9067 29.1133 48.84 29.26C48.78 29.4067 48.69 29.5367 48.57 29.65C48.45 29.7567 48.3033 29.8433 48.13 29.91C47.9567 29.97 47.7567 30 47.53 30V30.55ZM47.83 34.1C48.25 34.1 48.6233 34.02 48.95 33.86C49.2767 33.7 49.5333 33.4733 49.72 33.18C49.9133 32.8867 50.01 32.5433 50.01 32.15C50.01 31.8033 49.9433 31.5067 49.81 31.26C49.6833 31.0133 49.5033 30.8133 49.27 30.66C49.0433 30.5 48.78 30.3833 48.48 30.31C48.1867 30.2367 47.87 30.2 47.53 30.2V30.75C47.7567 30.75 47.9667 30.7767 48.16 30.83C48.3533 30.8833 48.5233 30.9667 48.67 31.08C48.8167 31.1867 48.93 31.3233 49.01 31.49C49.0967 31.65 49.14 31.8367 49.14 32.05C49.14 32.3033 49.0867 32.5233 48.98 32.71C48.8733 32.8967 48.72 33.0433 48.52 33.15C48.3267 33.25 48.0967 33.3 47.83 33.3C47.5633 33.3 47.3267 33.25 47.12 33.15C46.9133 33.05 46.75 32.9133 46.63 32.74C46.5167 32.5667 46.46 32.37 46.46 32.15H45.6C45.6 32.4233 45.6533 32.68 45.76 32.92C45.8667 33.1533 46.0167 33.36 46.21 33.54C46.4033 33.7133 46.6367 33.85 46.91 33.95C47.1833 34.05 47.49 34.1 47.83 34.1ZM54.767 31.7C54.767 31.38 54.8337 31.0967 54.967 30.85C55.107 30.5967 55.2937 30.4 55.527 30.26C55.767 30.12 56.037 30.05 56.337 30.05C56.637 30.05 56.9037 30.12 57.137 30.26C57.377 30.4 57.5637 30.5967 57.697 30.85C57.837 31.0967 57.907 31.38 57.907 31.7C57.907 32.02 57.837 32.3033 57.697 32.55C57.5637 32.79 57.377 32.98 57.137 33.12C56.9037 33.26 56.637 33.33 56.337 33.33C56.037 33.33 55.767 33.26 55.527 33.12C55.2937 32.98 55.107 32.79 54.967 32.55C54.8337 32.3033 54.767 32.02 54.767 31.7ZM56.757 27L54.397 30.25C54.2637 30.4367 54.157 30.6533 54.077 30.9C53.997 31.1467 53.957 31.4133 53.957 31.7C53.957 32.18 54.0604 32.6 54.267 32.96C54.4804 33.32 54.767 33.6 55.127 33.8C55.487 34 55.8904 34.1 56.337 34.1C56.7904 34.1 57.1937 34 57.547 33.8C57.907 33.6 58.1904 33.32 58.397 32.96C58.6104 32.6 58.717 32.18 58.717 31.7C58.717 31.38 58.6637 31.0833 58.557 30.81C58.4504 30.53 58.3004 30.2867 58.107 30.08C57.9204 29.8733 57.7004 29.7133 57.447 29.6C57.2004 29.4867 56.9337 29.43 56.647 29.43C56.4204 29.43 56.217 29.4567 56.037 29.51C55.8637 29.5633 55.7104 29.6733 55.577 29.84L55.637 29.89L57.827 27H56.757ZM60.4688 30.5C60.4688 30.0933 60.5088 29.72 60.5888 29.38C60.6688 29.0333 60.7854 28.7367 60.9388 28.49C61.0921 28.2367 61.2754 28.0433 61.4888 27.91C61.7088 27.77 61.9521 27.7 62.2188 27.7C62.4921 27.7 62.7354 27.77 62.9488 27.91C63.1621 28.0433 63.3454 28.2367 63.4988 28.49C63.6521 28.7367 63.7688 29.0333 63.8488 29.38C63.9288 29.72 63.9688 30.0933 63.9688 30.5C63.9688 30.9067 63.9288 31.2833 63.8488 31.63C63.7688 31.97 63.6521 32.2667 63.4988 32.52C63.3454 32.7667 63.1621 32.96 62.9488 33.1C62.7354 33.2333 62.4921 33.3 62.2188 33.3C61.9521 33.3 61.7088 33.2333 61.4888 33.1C61.2754 32.96 61.0921 32.7667 60.9388 32.52C60.7854 32.2667 60.6688 31.97 60.5888 31.63C60.5088 31.2833 60.4688 30.9067 60.4688 30.5ZM59.6188 30.5C59.6188 31.2 59.7288 31.82 59.9488 32.36C60.1688 32.9 60.4721 33.3267 60.8588 33.64C61.2521 33.9467 61.7054 34.1 62.2188 34.1C62.7321 34.1 63.1821 33.9467 63.5688 33.64C63.9621 33.3267 64.2688 32.9 64.4888 32.36C64.7088 31.82 64.8188 31.2 64.8188 30.5C64.8188 29.8 64.7088 29.18 64.4888 28.64C64.2688 28.1 63.9621 27.6767 63.5688 27.37C63.1821 27.0567 62.7321 26.9 62.2188 26.9C61.7054 26.9 61.2521 27.0567 60.8588 27.37C60.4721 27.6767 60.1688 28.1 59.9488 28.64C59.7288 29.18 59.6188 29.8 59.6188 30.5ZM67.7448 30.55C68.1982 30.55 68.5948 30.47 68.9348 30.31C69.2748 30.15 69.5415 29.9333 69.7348 29.66C69.9282 29.3867 70.0248 29.0867 70.0248 28.76C70.0248 28.4267 69.9448 28.12 69.7848 27.84C69.6315 27.56 69.4082 27.3333 69.1148 27.16C68.8282 26.9867 68.4848 26.9 68.0848 26.9C67.7048 26.9 67.3648 26.98 67.0648 27.14C66.7715 27.2933 66.5382 27.5067 66.3648 27.78C66.1982 28.0533 66.1148 28.3733 66.1148 28.74H66.9248C66.9248 28.4333 67.0382 28.18 67.2648 27.98C67.4915 27.7733 67.7682 27.67 68.0948 27.67C68.3282 27.67 68.5215 27.7167 68.6748 27.81C68.8348 27.9033 68.9548 28.0367 69.0348 28.21C69.1148 28.3767 69.1548 28.57 69.1548 28.79C69.1548 28.9567 69.1215 29.1133 69.0548 29.26C68.9948 29.4067 68.9048 29.5367 68.7848 29.65C68.6648 29.7567 68.5182 29.8433 68.3448 29.91C68.1715 29.97 67.9715 30 67.7448 30V30.55ZM68.0448 34.1C68.4648 34.1 68.8382 34.02 69.1648 33.86C69.4915 33.7 69.7482 33.4733 69.9348 33.18C70.1282 32.8867 70.2248 32.5433 70.2248 32.15C70.2248 31.8033 70.1582 31.5067 70.0248 31.26C69.8982 31.0133 69.7182 30.8133 69.4848 30.66C69.2582 30.5 68.9948 30.3833 68.6948 30.31C68.4015 30.2367 68.0848 30.2 67.7448 30.2V30.75C67.9715 30.75 68.1815 30.7767 68.3748 30.83C68.5682 30.8833 68.7382 30.9667 68.8848 31.08C69.0315 31.1867 69.1448 31.3233 69.2248 31.49C69.3115 31.65 69.3548 31.8367 69.3548 32.05C69.3548 32.3033 69.3015 32.5233 69.1948 32.71C69.0882 32.8967 68.9348 33.0433 68.7348 33.15C68.5415 33.25 68.3115 33.3 68.0448 33.3C67.7782 33.3 67.5415 33.25 67.3348 33.15C67.1282 33.05 66.9648 32.9133 66.8448 32.74C66.7315 32.5667 66.6748 32.37 66.6748 32.15H65.8148C65.8148 32.4233 65.8682 32.68 65.9748 32.92C66.0815 33.1533 66.2315 33.36 66.4248 33.54C66.6182 33.7133 66.8515 33.85 67.1248 33.95C67.3982 34.05 67.7048 34.1 68.0448 34.1Z" fill="#5D6C7B"/>
<defs>
<clipPath id="clip0_1_16097">
<rect width="20" height="20" fill="white" transform="translate(14 13)"/>
</clipPath>
</defs>
</svg>
