<svg width="36" height="24" viewBox="0 0 36 24" fill="none" xmlns="http://www.w3.org/2000/svg">
<rect x="1.18887" y="0.559815" width="33.5905" height="22.8805" rx="2.6775" fill="white" stroke="#EAEBED" stroke-width="0.486818"/>
<path fill-rule="evenodd" clip-rule="evenodd" d="M10.273 8.43958C9.98694 8.7822 9.52929 9.05244 9.07165 9.01383C9.01444 8.55057 9.2385 8.05836 9.50069 7.75434C9.78672 7.40207 10.2873 7.15114 10.6925 7.13184C10.7402 7.6144 10.5542 8.08731 10.273 8.43958ZM10.6877 9.10551C10.2845 9.08202 9.91662 9.22825 9.61947 9.34636C9.42825 9.42237 9.26632 9.48673 9.14312 9.48673C9.00487 9.48673 8.83625 9.41892 8.64694 9.34279C8.39887 9.24304 8.11526 9.12899 7.81785 9.13446C7.13614 9.14411 6.5021 9.53499 6.1541 10.1575C5.43902 11.4025 5.96818 13.2459 6.65942 14.2593C6.99789 14.7611 7.4031 15.3113 7.93702 15.292C8.17192 15.283 8.34089 15.2104 8.51576 15.1353C8.71708 15.0488 8.92621 14.959 9.25277 14.959C9.568 14.959 9.76799 15.0465 9.95997 15.1305C10.1425 15.2103 10.3178 15.287 10.578 15.2823C11.131 15.2727 11.479 14.7805 11.8175 14.2786C12.1828 13.74 12.3433 13.2143 12.3676 13.1345L12.3676 13.1345L12.3705 13.1253C12.3699 13.1247 12.3654 13.1226 12.3574 13.1189C12.2353 13.0623 11.3021 12.6298 11.2931 11.4701C11.2841 10.4966 12.0334 10.0034 12.1513 9.92579L12.1513 9.92578C12.1585 9.92106 12.1633 9.91787 12.1655 9.91621C11.6888 9.20202 10.9451 9.12481 10.6877 9.10551ZM14.5158 15.2292V7.70607H17.3046C18.7443 7.70607 19.7501 8.7098 19.7501 10.1768C19.7501 11.6438 18.7252 12.6572 17.2664 12.6572H15.6694V15.2292H14.5158ZM15.6693 8.69052H16.9994C18.0005 8.69052 18.5725 9.23099 18.5725 10.1816C18.5725 11.1323 18.0005 11.6776 16.9946 11.6776H15.6693V8.69052ZM23.5592 14.3269C23.2541 14.9156 22.5819 15.2872 21.8573 15.2872C20.7847 15.2872 20.0362 14.6405 20.0362 13.6658C20.0362 12.7006 20.7608 12.1457 22.1004 12.0637L23.5401 11.9768V11.5618C23.5401 10.9489 23.1444 10.616 22.4389 10.616C21.8573 10.616 21.433 10.92 21.3472 11.3832H20.3079C20.3413 10.4085 21.2471 9.6991 22.4722 9.6991C23.7928 9.6991 24.6508 10.3988 24.6508 11.4846V15.2293H23.583V14.3269H23.5592ZM22.1671 14.3944C21.5521 14.3944 21.1612 14.0952 21.1612 13.6368C21.1612 13.1639 21.5378 12.8888 22.2576 12.8454L23.54 12.7633V13.188C23.54 13.8925 22.9489 14.3944 22.1671 14.3944ZM28.1928 15.5236C27.7304 16.841 27.2012 17.2753 26.0762 17.2753C25.9904 17.2753 25.7043 17.2657 25.6376 17.2464V16.344C25.7091 16.3536 25.8855 16.3633 25.9761 16.3633C26.4862 16.3633 26.7722 16.1461 26.9486 15.5815L27.0535 15.2486L25.0989 9.77148H26.305L27.6637 14.2159H27.6875L29.0461 9.77148H30.2189L28.1928 15.5236Z" fill="#282739"/>
</svg>
