<svg width="35" height="24" viewBox="0 0 35 24" fill="none" xmlns="http://www.w3.org/2000/svg">
<rect x="0.970689" y="0.559815" width="33.5905" height="22.8805" rx="2.6775" fill="white" stroke="#EAEBED" stroke-width="0.486818"/>
<path fill-rule="evenodd" clip-rule="evenodd" d="M13.5474 16.0491C13.6999 15.9699 13.9592 15.8659 14.2339 15.8659C14.8643 15.8659 15.2051 16.2916 15.2051 17.0838C15.2051 18.0091 14.7476 18.4596 14.0102 18.4596C13.7406 18.4596 13.3237 18.3755 13.0185 18.2169V14.7622L13.5474 14.6384V16.0491ZM13.5424 18.0338C13.705 18.1031 13.8831 18.1129 14.0102 18.1129C14.3865 18.1129 14.6713 17.8853 14.6713 17.0837C14.6713 16.4549 14.4373 16.252 14.0967 16.252C13.8931 16.252 13.7458 16.3064 13.5424 16.4153V18.0338ZM8.12647 15.9301H8.16208L8.85349 18.4001H9.40262L10.2265 14.8907H9.6315L9.11286 17.5092H9.07742L8.37046 14.8907H7.91791L7.2569 17.5092H7.22128L6.65173 14.8907H6.08228L6.90607 18.4001H7.45511L8.12647 15.9301ZM12.4798 18.2317V17.8556C12.2001 18.0189 11.946 18.1129 11.6714 18.1129C11.1476 18.1129 10.8985 17.8505 10.8985 17.2566H12.5561V17.0736C12.5561 16.2669 12.1645 15.8659 11.529 15.8659C10.7663 15.8659 10.3747 16.4104 10.3747 17.1626C10.3747 17.9448 10.7256 18.4596 11.5797 18.4596C11.946 18.4596 12.251 18.3606 12.4798 18.2317ZM12.073 16.9251H10.9088C10.9646 16.4303 11.2034 16.1976 11.5138 16.1976C11.7884 16.1976 12.0478 16.4053 12.073 16.9251ZM17.5442 17.6576H17.5187L16.3797 14.8907H15.7645V18.4001H16.2221V15.9154H16.2678L17.3053 18.4001H17.6306L18.668 15.856H18.7138V18.4001H19.263V14.8907H18.6323L17.5442 17.6576ZM19.8224 17.1626C19.8224 16.2964 20.3106 15.8659 20.9817 15.8659C21.653 15.8659 22.1413 16.2964 22.1413 17.1626C22.1413 18.0091 21.6785 18.4596 20.9817 18.4596C20.285 18.4596 19.8224 18.0091 19.8224 17.1626ZM21.6072 17.1626C21.6072 16.4945 21.3274 16.2124 20.9817 16.2124C20.6461 16.2124 20.3562 16.4945 20.3562 17.1626C20.3562 17.8409 20.6208 18.1129 20.9817 18.1129C21.3427 18.1129 21.6072 17.8409 21.6072 17.1626ZM23.9206 15.8659C23.3361 15.8659 22.8529 16.0985 22.6241 16.2321V18.4001H23.153V16.44C23.3105 16.3511 23.5699 16.2618 23.7734 16.2618C24.0327 16.2618 24.2308 16.3311 24.2308 16.7222V18.4001H24.7596V16.6082C24.7596 16.0985 24.531 15.8659 23.9206 15.8659ZM27.3376 17.8556V18.2317C27.1089 18.3606 26.8039 18.4596 26.4376 18.4596C25.5835 18.4596 25.2326 17.9448 25.2326 17.1626C25.2326 16.4104 25.6243 15.8659 26.3869 15.8659C27.0227 15.8659 27.4143 16.2669 27.4143 17.0736V17.2566H25.7566C25.7566 17.8505 26.0057 18.1129 26.5294 18.1129C26.8039 18.1129 27.0582 18.0189 27.3376 17.8556ZM25.7667 16.9251H26.9311C26.9058 16.4053 26.6463 16.1976 26.3717 16.1976C26.0614 16.1976 25.8227 16.4303 25.7667 16.9251ZM29.9364 15.95H29.3923L28.8124 17.7714H28.7821L28.1312 15.95H27.5718L28.5482 18.4248C28.4259 18.791 28.2126 19.0585 27.8668 19.0585V19.4642C28.4513 19.4642 28.7616 19.108 29.0159 18.4248L29.9364 15.95Z" fill="#0068A3"/>
<path fill-rule="evenodd" clip-rule="evenodd" d="M17.6684 4.51599C18.3682 4.51599 19.0309 4.67461 19.6211 4.95623C19.7138 4.99903 19.8063 5.04613 19.899 5.09813L19.4887 5.45555L18.8723 4.83516L17.832 5.73839L17.214 5.08193L15.2761 6.7823L16.5185 8.11508L16.0302 8.53308L17.254 9.86788L16.7686 10.2849L18.5173 12.1795L19.5553 11.2493L20.4527 12.2462C20.2742 12.3812 20.0798 12.5083 19.8656 12.6258C19.2166 12.986 18.4665 13.1923 17.6684 13.1923C15.2137 13.1923 13.2117 11.2433 13.2117 8.85426C13.2117 6.4647 15.2137 4.51599 17.6684 4.51599ZM16.8561 8.58003L17.9159 7.65107L18.8702 8.68289L17.8105 9.61151L16.8561 8.58003ZM18.6696 9.43385L17.6098 10.3626L18.5642 11.3944L19.624 10.4654L18.6696 9.43385ZM16.0979 6.81844L17.1576 5.88974L18.1117 6.9213L17.0519 7.85001L16.0979 6.81844ZM18.8375 5.62202L18.0426 6.31849L18.7582 7.09242L19.5531 6.3957L18.8375 5.62202ZM19.4548 9.50921L20.2499 8.81249L20.9655 9.58634L20.1707 10.2829L19.4548 9.50921ZM20.9487 10.3752L20.1541 11.072L20.8697 11.8454L21.6645 11.1488L20.9487 10.3752ZM20.4742 7.4903L21.0041 7.0259L21.4811 7.54169L20.9515 8.006L20.4742 7.4903ZM20.3271 5.49343L19.7972 5.95773L20.2742 6.47352L20.8042 6.00921L20.3271 5.49343ZM21.1516 9.02272L21.6815 8.55832L22.1586 9.07402L21.6287 9.53841L21.1516 9.02272ZM19.57 7.17756L18.7752 7.87437L19.491 8.64778L20.2856 7.95123L19.57 7.17756Z" fill="#0068A3"/>
</svg>
