<svg width="35" height="24" viewBox="0 0 35 24" fill="none" xmlns="http://www.w3.org/2000/svg">
<rect x="1.13434" y="0.559815" width="33.5905" height="22.8805" rx="2.6775" fill="white" stroke="#EAEBED" stroke-width="0.486818"/>
<path fill-rule="evenodd" clip-rule="evenodd" d="M11.2361 16.146H9.17166L7.6236 10.24C7.55012 9.96834 7.3941 9.72816 7.16461 9.61497C6.59189 9.3305 5.96078 9.1041 5.27231 8.98992V8.76254H8.59793C9.05691 8.76254 9.40115 9.1041 9.45853 9.50079L10.2617 13.7609L12.3252 8.76254H14.3322L11.2361 16.146ZM15.4797 16.146H13.53L15.1354 8.76254H17.0851L15.4797 16.146ZM19.6075 10.808C19.6649 10.4103 20.0091 10.183 20.4107 10.183C21.0418 10.1259 21.7293 10.24 22.303 10.5235L22.6473 8.93385C22.0735 8.70647 21.4424 8.59229 20.8697 8.59229C18.9774 8.59229 17.6005 9.615 17.6005 11.0344C17.6005 12.1142 18.5758 12.6812 19.2643 13.0227C20.0091 13.3633 20.296 13.5907 20.2386 13.9313C20.2386 14.4421 19.6649 14.6695 19.0922 14.6695C18.4037 14.6695 17.7152 14.4992 17.0851 14.2148L16.7409 15.8054C17.4293 16.0889 18.1742 16.2031 18.8627 16.2031C20.9845 16.2592 22.303 15.2375 22.303 13.7039C22.303 11.7726 19.6075 11.6594 19.6075 10.808ZM29.1264 16.146L27.5783 8.76254H25.9155C25.5713 8.76254 25.2271 8.98992 25.1123 9.3305L22.2457 16.146H24.2527L24.6533 15.0671H27.1194L27.3488 16.146H29.1264ZM26.2024 10.7509L26.7751 13.5336H25.1697L26.2024 10.7509Z" fill="#172B85"/>
</svg>
