<svg width="35" height="24" viewBox="0 0 35 24" fill="none" xmlns="http://www.w3.org/2000/svg">
<rect x="1.07977" y="0.559815" width="33.5905" height="22.8805" rx="2.6775" fill="white" stroke="#EAEBED" stroke-width="0.486818"/>
<path fill-rule="evenodd" clip-rule="evenodd" d="M22.3767 18.8447C26.046 18.8447 29.0206 15.8356 29.0206 12.1237C29.0206 8.4118 26.046 5.40271 22.3767 5.40271C20.7323 5.40271 19.2273 6.0071 18.0672 7.00828C16.907 6.00712 15.4021 5.40274 13.7577 5.40274C10.0883 5.40274 7.11378 8.41183 7.11378 12.1237C7.11378 15.8356 10.0883 18.8447 13.7577 18.8447C15.4021 18.8447 16.907 18.2403 18.0672 17.2392C19.2274 18.2403 20.7323 18.8447 22.3767 18.8447Z" fill="#ED0006"/>
<path fill-rule="evenodd" clip-rule="evenodd" d="M18.0672 17.2392C19.4957 16.0064 20.4015 14.1721 20.4015 12.1237C20.4015 10.0754 19.4957 8.24102 18.0672 7.00826C19.2274 6.0071 20.7323 5.40271 22.3767 5.40271C26.046 5.40271 29.0206 8.4118 29.0206 12.1237C29.0206 15.8356 26.046 18.8447 22.3767 18.8447C20.7323 18.8447 19.2274 18.2403 18.0672 17.2392Z" fill="#F9A000"/>
<path fill-rule="evenodd" clip-rule="evenodd" d="M18.0672 17.2391C19.4957 16.0064 20.4015 14.1721 20.4015 12.1237C20.4015 10.0754 19.4957 8.24106 18.0672 7.0083C16.6387 8.24106 15.7329 10.0754 15.7329 12.1237C15.7329 14.1721 16.6387 16.0064 18.0672 17.2391Z" fill="#FF5E00"/>
</svg>
