<svg width="35" height="24" viewBox="0 0 35 24" fill="none" xmlns="http://www.w3.org/2000/svg">
<rect x="0.916139" y="0.559815" width="33.5905" height="22.8805" rx="2.6775" fill="white" stroke="#EAEBED" stroke-width="0.486818"/>
<path fill-rule="evenodd" clip-rule="evenodd" d="M10.4091 11.5788C10.4091 15.3487 13.4836 18.4232 17.2901 18.4232C17.7573 18.4232 18.2245 18.3823 18.7614 18.3353C19.36 18.2829 20.0453 18.2229 20.9136 18.2036C22.2313 18.2036 23.6587 18.6794 25.2326 20.0702C25.379 20.2167 25.5986 20.0336 25.4522 19.8506C23.8783 17.9108 22.4509 17.5448 21.0234 17.2154C19.2666 16.8127 18.3516 15.8611 17.7293 14.7631C17.6195 14.5435 17.5463 14.5801 17.5463 14.8729C17.5097 15.3121 17.5463 15.7147 17.6195 16.1173H17.3999C14.911 16.1173 12.8614 14.0677 12.8614 11.5788C12.8614 9.0899 14.911 7.04023 17.3999 7.04023C19.8888 7.04023 21.9385 9.0899 21.9385 11.5788C21.9385 11.7252 21.9385 11.9082 21.9019 12.0912C21.5359 12.018 20.9136 12.018 20.4378 12.0546C20.2548 12.0546 20.2548 12.1278 20.4012 12.1644C21.8653 12.4572 22.8901 13.3722 23.1463 15.0559C23.1463 15.1291 23.1829 15.1291 23.2195 15.0925C23.8051 14.0677 24.1711 12.8598 24.1711 11.5788C24.1711 7.77225 21.0966 4.69775 17.2901 4.69775C13.4836 4.69775 10.4091 7.80885 10.4091 11.5788ZM22.2678 14.3971C22.524 14.5069 22.6338 14.8729 22.6338 15.0559C22.6704 15.3487 22.5972 15.4951 22.4874 15.4951C22.3776 15.4951 22.2312 15.3853 22.0848 15.1291C21.9384 14.8729 21.8652 14.6167 21.9384 14.4703C22.0482 14.3971 22.158 14.3605 22.2678 14.3971ZM20.7672 15.5317C20.9136 15.5317 21.0966 15.6049 21.2796 15.7513C21.5724 16.0075 21.6822 16.3004 21.5358 16.52C21.4626 16.6298 21.2796 16.703 21.1332 16.703C20.9502 16.703 20.7672 16.6298 20.6574 16.52C20.3646 16.2638 20.2914 15.8977 20.4744 15.6781C20.511 15.6049 20.6208 15.5317 20.7672 15.5317Z" fill="#F28A1A"/>
</svg>
