<svg width="35" height="24" viewBox="0 0 35 24" fill="none" xmlns="http://www.w3.org/2000/svg">
<rect x="0.243409" y="0.559815" width="33.5905" height="22.8805" rx="2.6775" fill="white" stroke="#EAEBED" stroke-width="0.486818"/>
<path fill-rule="evenodd" clip-rule="evenodd" d="M16.0943 15.659V12.7177H17.6124C18.2345 12.7177 18.7595 12.5093 19.1875 12.0982L19.2903 11.994C20.0721 11.1428 20.0208 9.81692 19.1875 9.02948C18.7709 8.6126 18.2002 8.38679 17.6124 8.39837H15.1755V15.659H16.0943ZM16.0944 11.826V9.28998H17.6356C17.9666 9.28998 18.2806 9.41736 18.5146 9.64896C19.0112 10.1353 19.0226 10.9459 18.5432 11.4496C18.3091 11.6986 17.9781 11.8376 17.6356 11.826H16.0944ZM23.5763 11.0791C23.1825 10.7143 22.646 10.5291 21.9669 10.5291C21.0937 10.5291 20.4374 10.8533 20.0037 11.496L20.8141 12.0113C21.1108 11.5713 21.516 11.3512 22.0297 11.3512C22.355 11.3512 22.6689 11.4728 22.9143 11.6929C23.154 11.9013 23.2909 12.2024 23.2909 12.5208V12.7351C22.9371 12.5382 22.4919 12.434 21.9441 12.434C21.3049 12.434 20.7912 12.5845 20.4089 12.8914C20.0265 13.1983 19.8325 13.6036 19.8325 14.1189C19.8211 14.5878 20.0208 15.0337 20.3746 15.3348C20.7342 15.659 21.1907 15.8211 21.7272 15.8211C22.3607 15.8211 22.8629 15.5374 23.2453 14.97H23.2852V15.659H24.1641V12.5961C24.1641 11.9534 23.9701 11.4439 23.5763 11.0791ZM21.0825 14.7442C20.8941 14.6053 20.78 14.3794 20.78 14.1363C20.78 13.8641 20.9055 13.6383 21.151 13.4588C21.4021 13.2793 21.7161 13.1867 22.0871 13.1867C22.6008 13.1809 23.0003 13.2967 23.2857 13.5283C23.2857 13.922 23.1316 14.2636 22.8291 14.5531C22.5551 14.8311 22.1841 14.9874 21.796 14.9874C21.5391 14.9932 21.288 14.9063 21.0825 14.7442ZM26.1388 17.8418L29.2091 10.6912H28.2104L26.7894 14.2578H26.7722L25.3169 10.6912H24.3182L26.3328 15.3405L25.1914 17.8418H26.1388Z" fill="#282739"/>
<path d="M12.9222 12.0808C12.9222 11.7971 12.8994 11.5134 12.8537 11.2355H8.97864V12.8393H11.1987C11.1074 13.3546 10.8106 13.8178 10.3769 14.1073V15.1495H11.7009C12.477 14.4258 12.9222 13.3546 12.9222 12.0808Z" fill="#4285F4"/>
<path d="M8.97882 16.157C10.086 16.157 11.0219 15.7864 11.7011 15.1495L10.377 14.1073C10.0061 14.3621 9.5324 14.5069 8.97882 14.5069C7.9059 14.5069 6.99848 13.7715 6.67318 12.7872H5.3092V13.8642C6.00546 15.2711 7.42651 16.157 8.97882 16.157Z" fill="#34A853"/>
<path d="M6.67333 12.7872C6.50209 12.2719 6.50209 11.7103 6.67333 11.1892V10.118H5.30913C4.72122 11.2934 4.72122 12.683 5.30913 13.8584L6.67333 12.7872Z" fill="#FBBC04"/>
<path d="M8.97882 9.46949C9.56665 9.45791 10.1316 9.68372 10.554 10.0948L11.7296 8.90207C10.982 8.19569 10.0004 7.80776 8.97882 7.81934C7.42651 7.81934 6.00546 8.711 5.3092 10.118L6.67318 11.1949C6.99848 10.2048 7.9059 9.46949 8.97882 9.46949Z" fill="#EA4335"/>
</svg>
